# xmcd
#
# Track frame offsets: 
#        150
#        18677
#        30843
#        44586
#        56341
#        69545
#        83469
#        95504
#        110369
#        120747
#        134798
#        144144
#        156922
#        168990
#        180093
#        189452
#        205332
#        217740
#
# Disc length: 3071 seconds
#
# Revision: 2
# Processed by: cddbd v1.5.2PL0 Copyright (c) Steve Scherf et al.
# Submitted via: ExactAudioCopyFreeDBPlugin 1.0
#
DISCID=ec0bfd12
DTITLE=Nina Simone - Jazzclub Legends - My Baby Just Cares For Me
DYEAR=2007
DGENRE=Jazz
TTITLE0=Love Me Or Leave Me
TTITLE1=Trouble In Mind
TTITLE2=My Baby Just Cares For Me
TTITLE3=Little Girl Blue
TTITLE4=Feeling Good
TTITLE5=Work Song
TTITLE6=Old Jim Crow
TTITLE7=Sugar In My Bowl
TTITLE8=The Laziest Gal In Town
TTITLE9=Don't You Pay Them No Mind
TTITLE10=How Can I?
TTITLE11=Tomorrow Is My Turn
TTITLE12=Nobody Knows You When you're Down And Out
TTITLE13=Mood Indigo
TTITLE14=Brown Eyed Handsome Man
TTITLE15=Marriage Is For Old Folks
TTITLE16=The Gal From Joe's
TTITLE17=I'm Going Back Home
EXTD=Label: Verve\nSerie: jazzclub - legends\nBestellnummer: 06024 984
EXTD=6775\nFirma: Universal Classics and Jazz\nEVOE: Original recordings
EXTD=, 1964 - 1987\nBesetzung: Nina Simone - vocals and piano\n\n\n Für 
EXTD=freedb bereitgestelt von:\n    KELLER'S Musik-Katalog 2007 2007
EXTT0=
EXTT1=
EXTT2=
EXTT3=
EXTT4=
EXTT5=
EXTT6=
EXTT7=
EXTT8=
EXTT9=
EXTT10=
EXTT11=
EXTT12=
EXTT13=
EXTT14=
EXTT15=
EXTT16=
EXTT17=
PLAYORDER=
